<?xml version="1.0" encoding="UTF-8"?>
<!DOCTYPE svg PUBLIC "-//W3C//DTD SVG 1.1//EN" "http://www.w3.org/Graphics/SVG/1.1/DTD/svg11.dtd">
<svg xmlns="http://www.w3.org/2000/svg" version="1.1" width="512px" height="512px" style="shape-rendering:geometricPrecision; text-rendering:geometricPrecision; image-rendering:optimizeQuality; fill-rule:evenodd; clip-rule:evenodd" xmlns:xlink="http://www.w3.org/1999/xlink">
<g><path style="opacity:0.994" fill="hsl(39, 23%, 90%)" d="M 511.5,84.5 C 511.5,158.5 511.5,232.5 511.5,306.5C 505.014,332.485 488.681,348.652 462.5,355C 452.172,355.5 441.839,355.666 431.5,355.5C 431.667,379.169 431.5,402.836 431,426.5C 424.833,452.667 408.667,468.833 382.5,475C 271.167,475.667 159.833,475.667 48.5,475C 22.3193,468.652 5.98594,452.485 -0.5,426.5C -0.5,352.5 -0.5,278.5 -0.5,204.5C 5.9821,178.518 22.3154,162.352 48.5,156C 159.833,155.333 271.167,155.333 382.5,156C 408.667,162.167 424.833,178.333 431,204.5C 431.5,241.498 431.667,278.498 431.5,315.5C 438.175,315.666 444.842,315.5 451.5,315C 463.333,313.833 469.833,307.333 471,295.5C 471.667,228.833 471.667,162.167 471,95.5C 469.833,83.6667 463.333,77.1667 451.5,76C 347.5,75.3333 243.5,75.3333 139.5,76C 130.363,76.4807 124.196,80.9807 121,89.5C 121.154,109.021 111.654,117.521 92.5,115C 80.0261,108.521 75.8595,98.3546 80,84.5C 86.1628,58.3372 102.329,42.1705 128.5,36C 239.833,35.3333 351.167,35.3333 462.5,36C 488.681,42.3479 505.014,58.5146 511.5,84.5 Z M 59.5,195.5 C 163.501,195.333 267.501,195.5 371.5,196C 383.333,197.167 389.833,203.667 391,215.5C 391.5,222.158 391.666,228.825 391.5,235.5C 291.833,235.333 192.166,235.5 92.5,236C 79.2961,242.682 75.7961,252.849 82,266.5C 84.5962,270.39 88.0962,273.223 92.5,275C 192.166,275.5 291.833,275.667 391.5,275.5C 391.667,322.168 391.5,368.835 391,415.5C 390.519,424.637 386.019,430.804 377.5,434C 323.531,435.154 269.531,435.654 215.5,435.5C 161.469,435.654 107.469,435.154 53.5,434C 44.9807,430.804 40.4807,424.637 40,415.5C 39.3333,348.833 39.3333,282.167 40,215.5C 41.3448,203.657 47.8448,196.99 59.5,195.5 Z"/></g>
<g><path style="opacity:0.985" fill="hsl(18, 75%, 26%)" d="M 244.5,355.5 C 275.835,355.333 307.168,355.5 338.5,356C 349.752,361.343 353.919,370.176 351,382.5C 348.833,388.667 344.667,392.833 338.5,395C 307.167,395.667 275.833,395.667 244.5,395C 231.296,388.318 227.796,378.151 234,364.5C 236.84,360.673 240.34,357.673 244.5,355.5 Z"/></g>
</svg>
