<?xml version="1.0" encoding="UTF-8"?>
<!DOCTYPE svg PUBLIC "-//W3C//DTD SVG 1.1//EN" "http://www.w3.org/Graphics/SVG/1.1/DTD/svg11.dtd">
<svg xmlns="http://www.w3.org/2000/svg" version="1.1" width="512px" height="512px" style="shape-rendering:geometricPrecision; text-rendering:geometricPrecision; image-rendering:optimizeQuality; fill-rule:evenodd; clip-rule:evenodd" xmlns:xlink="http://www.w3.org/1999/xlink">
<g><path style="opacity:0.995" fill="#000000" d="M 70.5,-0.5 C 163.833,-0.5 257.167,-0.5 350.5,-0.5C 400.62,9.11757 431.787,38.7842 444,88.5C 445.657,227.804 445.99,367.138 445,506.5C 443.634,508.362 442.134,510.028 440.5,511.5C 317.167,511.5 193.833,511.5 70.5,511.5C 68.8657,510.028 67.3657,508.362 66,506.5C 65.3333,339.167 65.3333,171.833 66,4.5C 67.3657,2.63834 68.8657,0.971672 70.5,-0.5 Z M 85.5,19.5 C 164.527,19.0204 243.527,19.5204 322.5,21C 336.32,25.458 343.82,34.958 345,49.5C 345.333,64.5 345.667,79.5 346,94.5C 347.167,96.3333 348.667,97.8333 350.5,99C 367.867,99.1043 385.201,99.7709 402.5,101C 416.32,105.458 423.82,114.958 425,129.5C 425.5,250.166 425.667,370.833 425.5,491.5C 312.167,491.5 198.833,491.5 85.5,491.5C 85.5,334.167 85.5,176.833 85.5,19.5 Z M 145.5,205.5 C 165.5,205.5 185.5,205.5 205.5,205.5C 205.5,218.833 205.5,232.167 205.5,245.5C 185.5,245.5 165.5,245.5 145.5,245.5C 145.5,232.167 145.5,218.833 145.5,205.5 Z M 225.5,205.5 C 245.5,205.5 265.5,205.5 285.5,205.5C 285.5,218.833 285.5,232.167 285.5,245.5C 265.5,245.5 245.5,245.5 225.5,245.5C 225.5,232.167 225.5,218.833 225.5,205.5 Z M 305.5,205.5 C 325.5,205.5 345.5,205.5 365.5,205.5C 365.5,218.833 365.5,232.167 365.5,245.5C 345.5,245.5 325.5,245.5 305.5,245.5C 305.5,232.167 305.5,218.833 305.5,205.5 Z M 145.5,265.5 C 165.5,265.5 185.5,265.5 205.5,265.5C 205.5,278.833 205.5,292.167 205.5,305.5C 185.5,305.5 165.5,305.5 145.5,305.5C 145.5,292.167 145.5,278.833 145.5,265.5 Z M 225.5,265.5 C 245.5,265.5 265.5,265.5 285.5,265.5C 285.5,278.833 285.5,292.167 285.5,305.5C 265.5,305.5 245.5,305.5 225.5,305.5C 225.5,292.167 225.5,278.833 225.5,265.5 Z M 305.5,265.5 C 325.5,265.5 345.5,265.5 365.5,265.5C 365.5,278.833 365.5,292.167 365.5,305.5C 345.5,305.5 325.5,305.5 305.5,305.5C 305.5,292.167 305.5,278.833 305.5,265.5 Z M 145.5,325.5 C 165.5,325.5 185.5,325.5 205.5,325.5C 205.5,338.833 205.5,352.167 205.5,365.5C 185.5,365.5 165.5,365.5 145.5,365.5C 145.5,352.167 145.5,338.833 145.5,325.5 Z M 225.5,325.5 C 245.5,325.5 265.5,325.5 285.5,325.5C 285.5,338.833 285.5,352.167 285.5,365.5C 265.5,365.5 245.5,365.5 225.5,365.5C 225.5,352.167 225.5,338.833 225.5,325.5 Z M 305.5,325.5 C 325.5,325.5 345.5,325.5 365.5,325.5C 365.5,338.833 365.5,352.167 365.5,365.5C 345.5,365.5 325.5,365.5 305.5,365.5C 305.5,352.167 305.5,338.833 305.5,325.5 Z M 145.5,385.5 C 165.5,385.5 185.5,385.5 205.5,385.5C 205.5,398.833 205.5,412.167 205.5,425.5C 185.5,425.5 165.5,425.5 145.5,425.5C 145.5,412.167 145.5,398.833 145.5,385.5 Z M 225.5,385.5 C 245.5,385.5 265.5,385.5 285.5,385.5C 285.5,398.833 285.5,412.167 285.5,425.5C 265.5,425.5 245.5,425.5 225.5,425.5C 225.5,412.167 225.5,398.833 225.5,385.5 Z M 305.5,385.5 C 325.5,385.5 345.5,385.5 365.5,385.5C 365.5,398.833 365.5,412.167 365.5,425.5C 345.5,425.5 325.5,425.5 305.5,425.5C 305.5,412.167 305.5,398.833 305.5,385.5 Z"/></g>
<g><path style="opacity:0.999" fill="#000000" d="M 130.5,145.5 C 213.834,145.333 297.167,145.5 380.5,146C 382.333,147.167 383.833,148.667 385,150.5C 385.667,247.167 385.667,343.833 385,440.5C 383.833,442.333 382.333,443.833 380.5,445C 297.167,445.667 213.833,445.667 130.5,445C 128.667,443.833 127.167,442.333 126,440.5C 125.333,343.833 125.333,247.167 126,150.5C 127.366,148.638 128.866,146.972 130.5,145.5 Z M 145.5,205.5 C 145.5,218.833 145.5,232.167 145.5,245.5C 165.5,245.5 185.5,245.5 205.5,245.5C 205.5,232.167 205.5,218.833 205.5,205.5C 185.5,205.5 165.5,205.5 145.5,205.5 Z M 225.5,205.5 C 225.5,218.833 225.5,232.167 225.5,245.5C 245.5,245.5 265.5,245.5 285.5,245.5C 285.5,232.167 285.5,218.833 285.5,205.5C 265.5,205.5 245.5,205.5 225.5,205.5 Z M 305.5,205.5 C 305.5,218.833 305.5,232.167 305.5,245.5C 325.5,245.5 345.5,245.5 365.5,245.5C 365.5,232.167 365.5,218.833 365.5,205.5C 345.5,205.5 325.5,205.5 305.5,205.5 Z M 145.5,265.5 C 145.5,278.833 145.5,292.167 145.5,305.5C 165.5,305.5 185.5,305.5 205.5,305.5C 205.5,292.167 205.5,278.833 205.5,265.5C 185.5,265.5 165.5,265.5 145.5,265.5 Z M 225.5,265.5 C 225.5,278.833 225.5,292.167 225.5,305.5C 245.5,305.5 265.5,305.5 285.5,305.5C 285.5,292.167 285.5,278.833 285.5,265.5C 265.5,265.5 245.5,265.5 225.5,265.5 Z M 305.5,265.5 C 305.5,278.833 305.5,292.167 305.5,305.5C 325.5,305.5 345.5,305.5 365.5,305.5C 365.5,292.167 365.5,278.833 365.5,265.5C 345.5,265.5 325.5,265.5 305.5,265.5 Z M 145.5,325.5 C 145.5,338.833 145.5,352.167 145.5,365.5C 165.5,365.5 185.5,365.5 205.5,365.5C 205.5,352.167 205.5,338.833 205.5,325.5C 185.5,325.5 165.5,325.5 145.5,325.5 Z M 225.5,325.5 C 225.5,338.833 225.5,352.167 225.5,365.5C 245.5,365.5 265.5,365.5 285.5,365.5C 285.5,352.167 285.5,338.833 285.5,325.5C 265.5,325.5 245.5,325.5 225.5,325.5 Z M 305.5,325.5 C 305.5,338.833 305.5,352.167 305.5,365.5C 325.5,365.5 345.5,365.5 365.5,365.5C 365.5,352.167 365.5,338.833 365.5,325.5C 345.5,325.5 325.5,325.5 305.5,325.5 Z M 145.5,385.5 C 145.5,398.833 145.5,412.167 145.5,425.5C 165.5,425.5 185.5,425.5 205.5,425.5C 205.5,412.167 205.5,398.833 205.5,385.5C 185.5,385.5 165.5,385.5 145.5,385.5 Z M 225.5,385.5 C 225.5,398.833 225.5,412.167 225.5,425.5C 245.5,425.5 265.5,425.5 285.5,425.5C 285.5,412.167 285.5,398.833 285.5,385.5C 265.5,385.5 245.5,385.5 225.5,385.5 Z M 305.5,385.5 C 305.5,398.833 305.5,412.167 305.5,425.5C 325.5,425.5 345.5,425.5 365.5,425.5C 365.5,412.167 365.5,398.833 365.5,385.5C 345.5,385.5 325.5,385.5 305.5,385.5 Z"/></g>
</svg>
